<?xml version="1.0" standalone="no"?>
<!DOCTYPE svg PUBLIC "-//W3C//DTD SVG 20010904//EN"
 "http://www.w3.org/TR/2001/REC-SVG-20010904/DTD/svg10.dtd">
<svg version="1.0" xmlns="http://www.w3.org/2000/svg"
 width="512.000000pt" height="512.000000pt" viewBox="0 0 512.000000 512.000000"
 preserveAspectRatio="xMidYMid meet">
<metadata>
Created by potrace 1.11, written by Peter Selinger 2001-2013
</metadata>
<g transform="translate(0.000000,512.000000) scale(0.100000,-0.100000)"
fill="#000000" stroke="none">
<path d="M3121 4614 c-102 -39 -275 -126 -402 -202 -199 -119 -262 -150 -341
-170 -43 -11 -78 -19 -78 -18 -1 0 -5 45 -9 99 -9 107 -10 110 -76 128 -108
30 -399 -33 -670 -146 -102 -42 -325 -152 -385 -190 -37 -23 -40 -24 -40 -7 0
11 -9 27 -20 37 -17 15 -24 16 -45 7 -34 -16 -34 -63 0 -89 19 -15 67 -141
253 -673 325 -927 321 -915 319 -916 -1 -1 -31 4 -67 12 -137 29 -289 7 -411
-58 -79 -42 -179 -149 -224 -242 -42 -85 -68 -201 -62 -276 3 -48 1 -59 -24
-94 -60 -81 -32 -111 98 -104 83 4 84 4 89 -21 23 -118 65 -238 141 -404 20
-42 34 -78 32 -80 -2 -1 -31 -15 -64 -31 -103 -48 -240 -133 -347 -214 -166
-125 -382 -343 -490 -492 -27 -39 -29 -42 -8 -25 14 10 41 35 61 53 26 24 43
32 60 29 22 -4 22 -4 -3 -6 -16 0 -28 -4 -28 -7 0 -4 15 -23 34 -44 28 -31 37
-35 52 -27 11 6 -6 -12 -36 -40 -54 -50 -64 -81 -16 -50 20 13 25 14 29 3 3
-8 24 -17 46 -21 21 -3 42 -13 45 -20 4 -12 160 -14 944 -15 552 0 963 -5 998
-10 83 -14 109 -13 96 3 -8 9 3 11 54 9 35 -2 62 -8 58 -13 -3 -5 2 -9 10 -9
8 0 18 5 22 11 5 9 54 10 178 4 94 -4 189 -6 211 -4 78 4 170 2 198 -6 20 -5
27 -4 27 6 0 11 30 14 149 14 118 0 147 -3 139 -12 -8 -10 0 -13 37 -13 34 0
46 4 42 12 -6 17 350 15 367 -2 13 -13 36 -13 36 0 0 6 81 10 223 10 147 1
243 5 285 14 35 8 65 16 67 18 3 2 -7 22 -22 44 -19 28 -21 34 -7 22 19 -16
21 -16 49 1 17 11 46 32 65 49 31 27 33 31 20 48 -8 11 9 -3 38 -31 29 -27 52
-43 52 -36 0 10 6 9 22 -5 41 -36 -70 101 -174 213 -216 236 -548 508 -713
584 -27 13 -52 25 -54 26 -2 1 7 18 19 37 37 61 150 393 150 444 0 21 3 22 99
22 55 0 111 4 125 10 32 12 34 42 6 88 -16 26 -20 50 -20 126 0 170 -59 335
-155 431 -87 87 -231 147 -386 161 -127 12 -324 -49 -408 -126 l-33 -31 -23
21 c-12 11 -30 48 -39 82 -9 34 -40 107 -69 163 -87 170 -243 302 -402 341
-103 26 -305 23 -410 -5 -211 -56 -388 -199 -486 -393 -31 -62 -79 -216 -79
-254 0 -31 -11 -30 -41 2 -13 15 -47 41 -74 59 l-50 33 -93 265 c-52 146 -92
270 -89 274 3 5 88 50 189 101 190 96 307 137 421 147 81 8 89 2 74 -54 -17
-63 2 -75 108 -67 151 11 327 67 542 174 192 94 298 162 423 271 52 46 112 95
132 109 21 15 38 34 38 42 0 8 -47 84 -104 170 -139 206 -147 240 -122 520 19
211 20 230 4 230 -7 -1 -42 -12 -77 -26z m69 -32 c0 -40 -16 -55 -90 -85 -36
-15 -128 -61 -205 -103 -312 -167 -434 -216 -605 -244 -90 -14 -134 -11 -138
11 -2 13 10 17 65 22 144 14 289 70 490 190 185 110 431 233 471 236 7 1 12
-11 12 -27z m-965 -162 c40 -15 42 -37 4 -76 -18 -19 -36 -34 -39 -34 -3 0
-11 19 -17 43 -7 23 -15 50 -18 60 -6 13 -2 17 18 17 14 0 37 -4 52 -10z
m-328 -162 c18 -67 32 -122 31 -123 -2 -1 -41 -9 -87 -18 -89 -18 -226 -71
-483 -186 -86 -39 -161 -71 -167 -71 -8 0 -71 171 -71 195 0 16 187 116 350
189 143 63 381 149 389 140 3 -3 20 -59 38 -126z m211 -124 c24 -43 48 -100
54 -132 15 -78 27 -87 21 -15 -5 57 -4 60 18 66 13 4 36 7 52 7 l27 0 -36 -54
c-41 -62 -43 -51 39 -164 42 -58 43 -80 2 -42 -14 13 -25 21 -25 17 0 -26 167
-370 243 -499 l51 -87 27 15 c16 8 35 14 44 14 17 0 20 16 5 25 -5 3 -26 35
-46 71 -30 54 -34 68 -23 75 8 5 82 9 164 9 83 1 186 7 230 13 75 12 85 16
162 75 45 34 84 66 87 70 3 5 -45 0 -107 -9 -62 -10 -150 -21 -197 -25 -71 -5
-104 -14 -200 -54 -167 -71 -164 -70 -190 -20 -18 35 -19 44 -8 51 7 5 18 9
23 9 6 0 56 18 112 39 109 41 252 115 398 204 104 63 209 117 227 117 17 0 66
-72 53 -77 -22 -7 -196 -105 -193 -108 2 -1 37 3 78 11 41 7 92 13 112 14 20
0 40 5 43 11 5 6 12 4 21 -8 20 -27 17 -36 -19 -59 -17 -12 -73 -57 -122 -100
-50 -44 -113 -96 -142 -117 -58 -42 -362 -201 -473 -247 -97 -40 -250 -78
-320 -80 -99 -3 -102 -2 -98 23 2 14 9 20 18 18 8 -2 33 -6 54 -9 l39 -4 -20
28 c-35 50 -73 132 -73 159 0 48 25 24 82 -79 l58 -104 37 10 c21 5 39 11 40
12 2 2 -18 38 -43 82 -57 99 -162 314 -203 418 -43 108 -49 117 -57 89 -12
-42 -22 -24 -29 53 -8 85 -13 93 -100 147 l-50 31 50 7 c28 3 54 4 58 1 8 -4
2 105 -9 156 -8 41 11 22 54 -54z m90 -680 l3 -41 -103 -12 -103 -11 -67 -73
c-37 -39 -67 -75 -68 -79 0 -4 25 2 56 12 31 11 87 25 123 31 58 10 72 17 112
56 45 43 46 44 52 22 4 -16 0 -30 -13 -44 -24 -25 -25 -35 -5 -35 8 0 15 -3
15 -7 0 -5 -39 -9 -88 -9 -136 -2 -294 -59 -518 -189 -53 -30 -100 -55 -105
-55 -14 0 -11 17 5 23 15 6 236 260 231 265 -2 2 -63 -20 -137 -48 -184 -71
-170 -70 -190 -15 l-16 47 64 28 c249 112 519 181 689 177 l60 -2 3 -41z m29
-36 c-3 -8 -6 -5 -6 6 -1 11 2 17 5 13 3 -3 4 -12 1 -19z m608 -438 c133 -43
277 -164 351 -296 42 -75 96 -212 91 -228 -5 -13 -16 12 -49 104 -21 60 -23
62 -26 33 -2 -25 -8 -33 -22 -33 -11 0 -30 -5 -44 -11 -37 -17 -91 11 -115 60
-21 40 -25 63 -23 125 l2 39 26 -24 c15 -13 49 -58 76 -99 59 -90 72 -103 33
-35 -40 71 -98 147 -134 178 -35 29 -38 37 -16 37 34 0 14 41 -37 75 -96 63
-164 80 -323 80 -219 0 -281 -20 -300 -95 -11 -47 -39 -71 -90 -81 -88 -16
-190 -84 -238 -159 -43 -65 -89 -166 -107 -233 -15 -56 -36 -77 -25 -26 24
114 89 253 159 341 96 121 267 232 396 257 95 19 102 19 225 17 91 -3 137 -9
190 -26z m-131 -33 c16 -12 16 -14 2 -26 -16 -13 -96 -7 -96 8 0 29 62 41 94
18z m-46 -194 c2 -20 12 -37 28 -47 33 -22 30 -43 -9 -66 -18 -11 -52 -46 -75
-79 -46 -65 -45 -65 -184 -74 -63 -4 -65 -1 -47 51 9 25 19 34 51 43 23 6 50
8 61 5 11 -3 29 0 40 5 17 10 18 18 13 73 -7 58 -6 63 21 87 53 50 96 51 101
2z m-680 -239 c-7 -15 -14 -21 -16 -15 -2 7 2 18 8 26 18 22 21 18 8 -11z
m1924 7 c188 -48 300 -140 355 -291 35 -96 36 -106 8 -118 -14 -6 -25 -18 -25
-26 0 -8 -23 -34 -51 -58 -43 -37 -50 -48 -44 -67 7 -23 12 -23 65 -10 10 3
15 -3 15 -16 1 -11 5 -26 10 -34 6 -10 4 -13 -6 -8 -8 3 -43 18 -79 33 -36 14
-67 28 -69 30 -2 2 2 25 9 51 8 25 14 56 15 67 1 12 18 32 41 48 l39 26 13
-21 c12 -19 12 -19 7 -2 -4 11 -9 36 -12 55 -2 19 -15 52 -28 73 -14 20 -37
55 -51 77 -51 77 -130 122 -200 114 -33 -4 -61 -1 -86 10 -36 16 -43 24 -38
55 2 18 -144 5 -220 -20 -46 -15 -51 -19 -32 -25 33 -10 27 -19 -27 -43 -27
-11 -62 -32 -78 -45 l-29 -24 -22 22 -21 23 42 30 c143 103 329 137 499 94z
m-1259 -6 c1 -5 -10 -11 -25 -13 -16 -2 -28 1 -28 7 0 20 49 26 53 6z m-429
-17 c65 -18 62 -24 -16 -37 -93 -15 -148 -32 -148 -44 0 -6 15 -7 38 -3 105
19 202 32 202 27 -1 -3 -15 -22 -33 -42 -29 -33 -40 -38 -107 -48 -41 -6 -82
-14 -91 -16 -10 -4 -23 8 -37 33 l-21 39 27 25 c15 14 42 30 60 36 18 6 42 18
54 27 27 18 21 18 72 3z m-611 -39 c20 -7 37 -18 37 -24 0 -8 -16 -7 -52 6
-71 24 -174 28 -191 7 -24 -30 -87 -70 -102 -64 -25 9 -2 50 36 63 19 7 27 12
18 12 -9 1 -36 -6 -60 -14 -24 -9 -39 -12 -34 -6 6 5 33 16 60 25 58 18 226
16 288 -5z m1757 -102 c70 -72 43 -62 -37 13 -43 40 -88 77 -100 83 -13 6 -23
14 -23 19 0 14 113 -68 160 -115z m-837 83 c-18 -16 -45 -32 -60 -36 -16 -3
-37 -9 -48 -14 -11 -5 -35 -11 -52 -14 -31 -5 -33 -3 -33 22 0 15 4 33 9 41 9
13 86 25 186 29 l30 1 -32 -29z m1065 -30 c2 -14 13 -35 23 -49 11 -13 19 -39
19 -60 0 -33 -5 -40 -54 -73 -45 -30 -59 -35 -87 -29 -47 9 -48 32 -5 101 29
46 34 63 27 82 -7 20 -4 25 23 40 38 21 50 18 54 -12z m-1820 -45 c48 -42 50
-59 2 -25 -17 12 -33 20 -36 17 -3 -3 9 -15 26 -27 29 -21 30 -23 13 -36 -25
-19 -33 -17 -33 5 0 11 -5 23 -11 27 -6 3 -9 15 -6 25 3 10 1 21 -4 25 -5 3
-14 14 -20 25 -9 18 -8 19 8 11 10 -6 37 -27 61 -47z m-88 -57 c20 -58 25 -88
19 -100 -7 -13 -4 -23 10 -37 17 -17 18 -21 4 -41 -19 -27 -65 -24 -69 5 -4
24 -31 45 -59 45 -12 0 -25 3 -29 8 -4 4 -13 7 -19 7 -17 0 -9 68 14 120 15
34 26 45 50 50 17 4 33 13 36 21 8 22 12 14 43 -78z m225 46 c-49 -41 -73 -48
-33 -10 21 20 43 36 50 36 7 -1 0 -12 -17 -26z m1180 -21 c63 -159 64 -162 81
-543 10 -220 -26 -349 -142 -503 -107 -142 -312 -247 -481 -247 -91 0 -230 58
-355 148 -77 54 -158 193 -188 322 -19 78 -30 337 -19 450 10 99 59 314 76
331 12 11 215 39 351 48 64 5 241 9 393 10 255 1 277 0 284 -16z m931 6 c3 -6
1 -22 -6 -35 -11 -20 -11 -27 5 -44 24 -26 10 -54 -29 -58 -17 -2 -31 -13 -41
-33 -13 -24 -22 -29 -50 -29 -30 0 -38 6 -60 40 -14 23 -36 45 -48 49 -12 5
-30 18 -41 30 -17 19 -17 21 -2 27 9 4 37 4 61 0 51 -6 85 4 127 39 31 26 72
33 84 14z m-2936 -17 c0 -5 -13 -21 -30 -37 -19 -18 -30 -39 -30 -56 0 -14 -7
-44 -16 -65 -17 -40 -26 -117 -13 -109 4 3 10 -4 14 -15 3 -11 18 -26 33 -34
l26 -14 -44 -21 c-52 -25 -50 -25 -50 -8 0 21 -39 97 -50 97 -29 0 24 124 90
213 38 50 70 73 70 49z m164 -26 c20 -36 59 -66 84 -66 13 0 42 5 64 12 26 7
42 8 49 1 12 -12 1 -43 -15 -43 -7 0 -34 -20 -60 -45 -53 -50 -83 -56 -112
-24 -10 12 -38 30 -61 41 -45 20 -50 27 -32 45 15 15 3 33 -22 33 -24 0 -24 5
2 41 18 25 27 30 57 27 22 -2 39 -10 46 -22z m575 -3 c-19 -24 -42 -42 -54
-42 -5 0 6 13 25 29 40 34 48 37 29 13z m1686 -218 c159 -28 565 -142 588
-165 5 -4 8 -52 8 -105 -1 -85 -6 -111 -37 -204 -100 -292 -143 -374 -250
-491 -92 -99 -268 -170 -381 -153 -54 7 -163 49 -215 82 -49 31 -72 60 -110
136 -44 88 -44 104 1 187 66 121 93 217 95 333 0 55 -3 123 -7 150 l-9 50 54
55 c29 30 70 76 92 102 29 36 43 47 60 43 11 -2 62 -12 111 -20z m-1714 -80
c10 -27 66 -187 124 -354 l106 -305 -30 -23 c-32 -25 -55 -80 -45 -106 9 -25
24 -21 24 7 0 27 41 92 55 88 6 -1 23 -39 38 -85 l28 -82 -26 -51 c-35 -70
-66 -95 -160 -135 -63 -26 -93 -33 -145 -33 -36 0 -75 6 -88 13 -13 7 -57 21
-98 32 -114 30 -156 54 -242 138 -65 62 -88 94 -131 178 -106 209 -151 364
-151 519 l0 71 138 46 c75 26 182 58 238 72 110 27 311 65 333 62 7 -1 22 -24
32 -52z m106 -33 l48 -66 3 -96 c2 -52 1 -92 -4 -88 -10 11 -114 305 -114 324
0 13 24 -13 67 -74z m1333 10 c0 -8 -42 -52 -49 -52 -4 0 -5 20 -3 45 4 44 4
44 28 28 13 -8 24 -18 24 -21z m-2078 -16 c-20 -19 -55 -41 -76 -50 -36 -15
-41 -15 -65 1 l-26 17 70 32 c113 53 155 52 97 0z m814 -16 c1 -37 -13 -39
-26 -4 -13 33 -13 34 8 34 12 0 17 -9 18 -30z m1967 -748 c-10 -10 -34 -39
-53 -65 -19 -25 -38 -47 -42 -47 -4 0 16 29 44 65 29 36 56 65 60 65 4 0 0 -8
-9 -18z m60 -3 c29 -15 77 -60 77 -72 0 -5 -9 2 -21 17 -11 14 -37 35 -57 46
-21 10 -33 19 -29 20 5 0 18 -5 30 -11z m-2903 -74 c0 -2 -10 -9 -22 -15 -22
-11 -22 -10 -4 4 21 17 26 19 26 11z m2999 -55 c0 -10 -3 -8 -9 5 -12 27 -12
43 0 25 5 -8 9 -22 9 -30z m82 13 c13 -16 12 -17 -3 -4 -17 13 -22 21 -14 21
2 0 10 -8 17 -17z m40 -30 c13 -16 12 -17 -3 -4 -17 13 -22 21 -14 21 2 0 10
-8 17 -17z m-231 -29 c0 -2 -9 0 -20 6 -11 6 -20 13 -20 16 0 2 9 0 20 -6 11
-6 20 -13 20 -16z m109 -28 c-9 -8 -10 -7 -5 7 3 10 7 24 7 30 1 7 3 4 6 -7 3
-10 -1 -23 -8 -30z m162 27 c13 -16 12 -17 -3 -4 -10 7 -18 15 -18 17 0 8 8 3
21 -13z m-3341 -7 c0 -2 -12 -11 -27 -20 l-28 -17 24 20 c23 21 31 25 31 17z
m3145 -6 c14 -7 8 -8 -20 -3 -22 3 -42 7 -44 9 -9 8 45 2 64 -6z m250 -30 c10
-11 16 -20 13 -20 -3 0 -13 9 -23 20 -10 11 -16 20 -13 20 3 0 13 -9 23 -20z
m-198 -35 c0 -8 -4 -12 -9 -9 -5 3 -6 10 -3 15 9 13 12 11 12 -6z m253 -10
c13 -14 21 -25 18 -25 -2 0 -15 11 -28 25 -13 14 -21 25 -18 25 2 0 15 -11 28
-25z m-3550 11 c0 -2 -8 -10 -17 -17 -16 -13 -17 -12 -4 4 13 16 21 21 21 13z
m-40 -29 c0 -2 -10 -12 -22 -23 l-23 -19 19 23 c18 21 26 27 26 19z m3665 -47
c21 -22 37 -40 34 -40 -3 0 -23 18 -44 40 -21 22 -37 40 -34 40 3 0 23 -18 44
-40z m-3495 17 c0 -2 -10 -12 -22 -23 l-23 -19 19 23 c18 21 26 27 26 19z
m3275 -37 c10 -11 16 -20 13 -20 -3 0 -13 9 -23 20 -10 11 -16 20 -13 20 3 0
13 -9 23 -20z m-3573 -50 c-55 -43 -76 -68 -49 -57 45 18 48 17 12 -5 -23 -13
-56 -48 -78 -81 -35 -53 -85 -93 -109 -85 -13 5 243 268 260 268 8 0 -9 -18
-36 -40z m47 -16 c-12 -13 -27 -24 -32 -24 -5 0 2 9 17 21 14 11 26 28 27 37
0 12 2 13 6 4 3 -7 -5 -24 -18 -38z m131 -10 c-30 -30 -73 -65 -95 -76 -22
-10 -61 -42 -86 -70 -35 -39 -48 -48 -54 -37 -5 8 -4 11 0 6 9 -8 45 20 45 36
0 6 -10 2 -22 -9 l-23 -19 19 22 c10 13 22 20 26 18 4 -3 10 2 13 10 3 7 21
21 39 30 18 9 58 42 88 73 30 32 47 48 38 37 -29 -34 -21 -41 12 -10 16 15 27
32 24 37 -3 4 3 8 13 8 12 0 1 -16 -37 -56z m3760 -39 c47 -47 82 -85 80 -85
-3 0 -43 38 -90 85 -47 47 -82 85 -80 85 3 0 43 -38 90 -85z m-3837 39 c-17
-27 -90 -74 -114 -74 -8 0 13 16 46 35 33 19 56 35 50 35 -5 0 -2 5 8 11 9 6
14 15 11 21 -4 7 -2 8 4 4 9 -5 7 -14 -5 -32z m3563 -6 l29 -33 -32 29 c-31
28 -38 36 -30 36 2 0 16 -15 33 -32z m-3691 -77 c3 -5 2 -12 -3 -15 -5 -3 -9
1 -9 9 0 17 3 19 12 6z m3856 -83 c29 -35 46 -57 36 -49 -20 16 -101 111 -94
111 2 0 28 -28 58 -62z m-3899 26 c-10 -12 -19 -17 -21 -11 -2 6 1 13 8 15 6
2 9 7 7 11 -3 4 1 8 9 8 10 0 10 -5 -3 -23z m-23 -47 c0 -8 -2 -8 -6 1 -4 10
-12 8 -32 -10 l-26 -23 24 27 c23 27 42 29 40 5z m4181 -12 c19 -19 32 -35 29
-35 -3 0 -20 16 -39 35 -19 19 -32 35 -29 35 3 0 20 -16 39 -35z m-4190 -68
c0 -2 -12 -14 -27 -28 l-28 -24 24 28 c23 25 31 32 31 24z"/>
<path d="M2855 3398 c-33 -5 -97 -7 -143 -6 -45 2 -82 1 -82 -1 0 -10 56 -101
62 -101 13 0 238 108 238 114 0 3 -3 5 -7 5 -5 -1 -35 -6 -68 -11z"/>
<path d="M3860 2465 c30 -8 60 -14 65 -14 20 2 -71 27 -95 27 -14 0 0 -6 30
-13z"/>
<path d="M4211 2084 c0 -11 3 -14 6 -6 3 7 2 16 -1 19 -3 4 -6 -2 -5 -13z"/>
<path d="M1306 2411 c-3 -4 6 -6 19 -3 14 2 25 6 25 8 0 8 -39 4 -44 -5z"/>
<path d="M2060 2001 c-12 -23 -13 -31 -2 -31 4 0 12 11 19 25 13 29 -1 34 -17
6z"/>
<path d="M3059 1967 c-59 -50 -74 -114 -34 -147 12 -10 13 -4 8 38 -5 46 -3
52 32 91 40 44 37 54 -6 18z"/>
<path d="M2090 1918 c0 -9 5 -20 10 -23 13 -8 13 5 0 25 -8 13 -10 13 -10 -2z"/>
<path d="M3060 1741 c0 -12 5 -21 10 -21 6 0 10 6 10 14 0 8 -4 18 -10 21 -5
3 -10 -3 -10 -14z"/>
<path d="M2253 1424 c8 -102 47 -158 164 -232 55 -36 106 -48 149 -38 36 9 24
18 -40 27 -39 5 -71 19 -122 53 -83 55 -110 93 -125 172 -16 83 -33 95 -26 18z"/>
<path d="M972 2020 c0 -14 2 -19 5 -12 2 6 2 18 0 25 -3 6 -5 1 -5 -13z"/>
<path d="M3499 1993 c-19 -30 -36 -40 -88 -57 -36 -12 -67 -27 -69 -35 -4 -10
0 -12 14 -6 11 4 46 17 79 29 51 18 63 27 83 64 29 52 15 56 -19 5z"/>
<path d="M3976 1659 c-14 -11 -26 -25 -26 -30 0 -6 12 -1 26 10 15 12 33 21
40 21 7 0 16 5 19 10 11 18 -32 10 -59 -11z"/>
<path d="M3970 1595 c-8 -9 -8 -15 -2 -15 12 0 26 19 19 26 -2 2 -10 -2 -17
-11z"/>
<path d="M3891 1374 c-30 -8 -81 -26 -113 -41 -48 -21 -64 -35 -85 -72 -14
-25 -41 -71 -59 -103 -33 -55 -44 -98 -24 -98 6 0 10 7 10 15 0 14 95 180 120
210 5 6 42 24 82 39 154 59 185 81 69 50z"/>
<path d="M3514 1065 c-6 -23 0 -45 10 -34 10 12 15 59 6 59 -5 0 -12 -11 -16
-25z"/>
<path d="M1130 1646 c0 -20 11 -46 19 -46 4 0 6 14 3 30 -4 30 -22 43 -22 16z"/>
<path d="M1310 1435 c0 -63 93 -138 150 -120 33 11 22 25 -19 25 -51 0 -97 37
-111 91 -13 48 -20 50 -20 4z"/>
<path d="M1610 1061 c0 -16 29 -33 52 -29 21 3 20 5 -11 21 -39 20 -41 20 -41
8z"/>
<path d="M1794 1059 c-25 -7 -69 -39 -53 -39 22 1 94 30 97 38 4 14 -1 14 -44
1z"/>
<path d="M485 633 c-51 -58 -55 -64 -27 -47 18 10 46 40 63 67 16 26 28 47 26
47 -1 0 -29 -30 -62 -67z"/>
</g>
</svg>
